<svg width="44" height="54" viewBox="0 0 44 54" fill="none" xmlns="http://www.w3.org/2000/svg">
<path d="M31.4836 33.907C30.9289 33.6381 30.2924 33.5916 29.7046 33.777C29.1167 33.9625 28.6221 34.3658 28.3222 34.9043C28.0829 35.2932 27.8435 35.6722 27.5942 36.0412C27.1665 36.6819 26.7072 37.301 26.218 37.8961C25.6949 38.5294 25.0384 39.0392 24.2954 39.3893C23.5523 39.7393 22.7411 39.9208 21.9198 39.9208C21.0984 39.9208 20.2872 39.7393 19.5441 39.3893C18.8011 39.0392 18.1446 38.5294 17.6215 37.8961C17.1428 37.2977 16.6841 36.6694 16.2453 36.0212C14.0033 32.5703 12.4552 28.7154 11.6878 24.6723C11.2325 22.4567 10.9458 20.2097 10.8301 17.9507C10.7541 16.5008 11.1956 15.0711 12.0761 13.9166C12.9566 12.7622 14.2186 11.9581 15.637 11.648H15.7167C17.7689 11.2156 19.848 10.9224 21.9397 10.7704C24.0311 10.9196 26.1102 11.2094 28.1627 11.638H28.2325C29.6489 11.9525 30.9077 12.7597 31.7844 13.9159C32.6611 15.072 33.0987 16.5019 33.0194 17.9507C33.0194 18.3895 33.0194 18.8383 32.9296 19.307C32.8995 19.6257 32.9331 19.9472 33.0285 20.2529C33.1239 20.5585 33.2791 20.842 33.4852 21.087C33.6912 21.3321 33.944 21.5337 34.2287 21.6801C34.5134 21.8265 35.6806 31.4012 35.9998 31.4262L41.0474 22.4085C41.3645 22.4358 41.6839 22.4001 41.9872 22.3034C42.2905 22.2068 42.5717 22.0511 42.8145 21.8453C43.0574 21.6395 43.2571 21.3877 43.4023 21.1044C43.5474 20.8211 43.6351 20.5119 43.6602 20.1946C43.9411 16.722 43.9178 13.2316 43.5904 9.76314C43.5088 8.95031 43.2656 8.16198 42.8751 7.44443C42.4847 6.72687 41.9548 6.09455 41.3166 5.58458C35.7718 1.20657 25.6695 0.229248 22.7375 -0.000123633C22.1964 -0.0399979 21.6531 -0.0399979 21.112 -0.000123635C18.19 0.229248 8.07766 1.20657 2.53285 5.57461C1.89441 6.08355 1.36495 6.71579 0.976028 7.43368C0.587102 8.15156 0.346667 8.94039 0.269049 9.75316C-0.458958 17.113 -1.12713 41.2369 19.1573 53.1044C19.9974 53.5942 20.9524 53.8522 21.9247 53.8522C22.8971 53.8522 23.8521 53.5942 24.6922 53.1044C30.1501 49.9469 34.6827 45.4108 37.8362 39.9505C38.159 39.3934 38.2478 38.7312 38.0834 38.1087C37.9189 37.4863 33.4852 45.9565 36.9586 36.6296L36.809 36.5498L31.4836 33.907Z" fill="#0F92F0"/>
</svg>
