<svg width="13" height="8" viewBox="0 0 13 8" fill="none" xmlns="http://www.w3.org/2000/svg">
<g clip-path="url(#clip0_5_56)">
<path d="M6.10939 5.36008L10.6494 0.820081C10.8104 0.660695 11.0278 0.571289 11.2544 0.571289C11.481 0.571289 11.6984 0.660695 11.8594 0.820081C12.0171 0.984018 12.1051 1.20263 12.1051 1.43008C12.1051 1.65753 12.0171 1.87614 11.8594 2.04008L6.71939 7.18008C6.56097 7.33284 6.34947 7.4182 6.12939 7.4182C5.90931 7.4182 5.69781 7.33284 5.53939 7.18008L0.35939 2.04008C0.279267 1.96101 0.215649 1.86681 0.172227 1.76296C0.128805 1.6591 0.106445 1.54765 0.106445 1.43508C0.106445 1.32251 0.128805 1.21106 0.172227 1.10721C0.215649 1.00335 0.279267 0.909152 0.35939 0.830081C0.438461 0.749959 0.532658 0.68634 0.636516 0.642918C0.740373 0.599496 0.851821 0.577137 0.96439 0.577137C1.07696 0.577137 1.18841 0.599496 1.29226 0.642918C1.39612 0.68634 1.49032 0.749959 1.56939 0.830081L6.10939 5.36008Z" fill="#F5F5F5"/>
</g>
<defs>
<clipPath id="clip0_5_56">
<rect width="12" height="6.86" fill="white" transform="translate(0.109375 0.570068)"/>
</clipPath>
</defs>
</svg>
