<svg width="44" height="54" viewBox="0 0 44 54" fill="none" xmlns="http://www.w3.org/2000/svg">
<path d="M31.4838 33.9807C30.9292 33.7118 30.2927 33.6653 29.7048 33.8507C29.117 34.0362 28.6224 34.4395 28.3225 34.978C28.0831 35.3669 27.8438 35.7459 27.5945 36.1149C27.1668 36.7557 26.7075 37.3747 26.2182 37.9698C25.6952 38.6031 25.0387 39.113 24.2956 39.463C23.5526 39.813 22.7414 39.9945 21.92 39.9945C21.0986 39.9945 20.2874 39.813 19.5444 39.463C18.8013 39.113 18.1448 38.6031 17.6218 37.9698C17.1431 37.3715 16.6843 36.7432 16.2455 36.095C14.0035 32.644 12.4555 28.7892 11.688 24.746C11.2327 22.5304 10.946 20.2834 10.8304 18.0244C10.7543 16.5746 11.1959 15.1448 12.0763 13.9903C12.9568 12.8359 14.2188 12.0318 15.6372 11.7217H15.717C17.7692 11.2894 19.8482 10.9962 21.9399 10.8441C24.0314 10.9933 26.1104 11.2832 28.1629 11.7117H28.2327C29.6492 12.0262 30.9079 12.8335 31.7846 13.9896C32.6613 15.1458 33.099 16.5757 33.0196 18.0244C33.0196 18.4632 33.0196 18.912 32.9298 19.3807C32.8998 19.6995 32.9334 20.021 33.0288 20.3266C33.1242 20.6322 33.2794 20.9158 33.4854 21.1608C33.6915 21.4058 33.9442 21.6074 34.2289 21.7538C34.5136 21.9002 35.6808 31.4749 36 31.4999L41.0476 22.4822C41.3648 22.5095 41.6842 22.4738 41.9875 22.3772C42.2907 22.2805 42.5719 22.1248 42.8148 21.919C43.0576 21.7132 43.2574 21.4614 43.4025 21.1781C43.5477 20.8948 43.6353 20.5856 43.6604 20.2683C43.9414 16.7958 43.918 13.3053 43.5906 9.83687C43.509 9.02404 43.2658 8.23571 42.8754 7.51816C42.4849 6.8006 41.9551 6.16828 41.3169 5.65831C35.7721 1.2803 25.6697 0.302979 22.7378 0.0736068C22.1966 0.0337326 21.6533 0.0337326 21.1122 0.0736068C18.1902 0.302979 8.07791 1.2803 2.53309 5.64834C1.89465 6.15728 1.3652 6.78952 0.976272 7.50741C0.587346 8.22529 0.346911 9.01412 0.269293 9.82689C-0.458713 17.1867 -1.12688 41.3107 19.1576 53.1782C19.9976 53.6679 20.9526 53.9259 21.925 53.9259C22.8974 53.9259 23.8523 53.6679 24.6924 53.1782C30.1503 50.0206 34.683 45.4845 37.8364 40.0242C38.1592 39.4672 38.2481 38.8049 38.0836 38.1825C37.9191 37.56 33.4854 46.0302 36.9588 36.7033L36.8092 36.6235L31.4838 33.9807Z" fill="#890808"/>
</svg>
