<svg width="44" height="54" viewBox="0 0 44 54" fill="none" xmlns="http://www.w3.org/2000/svg">
<path d="M31.4836 33.9807C30.9289 33.7118 30.2924 33.6653 29.7046 33.8507C29.1167 34.0362 28.6221 34.4395 28.3222 34.978C28.0829 35.3669 27.8435 35.7459 27.5942 36.1149C27.1665 36.7557 26.7072 37.3747 26.218 37.9698C25.6949 38.6031 25.0384 39.113 24.2954 39.463C23.5523 39.813 22.7411 39.9945 21.9198 39.9945C21.0984 39.9945 20.2872 39.813 19.5441 39.463C18.8011 39.113 18.1446 38.6031 17.6215 37.9698C17.1428 37.3715 16.6841 36.7432 16.2453 36.095C14.0033 32.644 12.4552 28.7892 11.6878 24.746C11.2325 22.5304 10.9458 20.2834 10.8301 18.0244C10.7541 16.5746 11.1956 15.1448 12.0761 13.9903C12.9566 12.8359 14.2186 12.0318 15.637 11.7217H15.7167C17.7689 11.2894 19.848 10.9962 21.9397 10.8441C24.0311 10.9933 26.1102 11.2832 28.1627 11.7117H28.2325C29.6489 12.0262 30.9077 12.8335 31.7844 13.9896C32.6611 15.1458 33.0987 16.5757 33.0194 18.0244C33.0194 18.4632 33.0194 18.912 32.9296 19.3807C32.8995 19.6995 32.9331 20.021 33.0285 20.3266C33.1239 20.6322 33.2791 20.9158 33.4852 21.1608C33.6912 21.4058 33.944 21.6074 34.2287 21.7538C34.5134 21.9002 35.6806 31.4749 35.9998 31.4999L41.0474 22.4822C41.3645 22.5095 41.6839 22.4738 41.9872 22.3772C42.2905 22.2805 42.5717 22.1248 42.8145 21.919C43.0574 21.7132 43.2571 21.4614 43.4023 21.1781C43.5474 20.8948 43.6351 20.5856 43.6602 20.2683C43.9411 16.7958 43.9178 13.3053 43.5904 9.83687C43.5088 9.02404 43.2656 8.23571 42.8751 7.51816C42.4847 6.8006 41.9548 6.16828 41.3166 5.65831C35.7718 1.2803 25.6695 0.302979 22.7375 0.0736068C22.1964 0.0337326 21.6531 0.0337326 21.112 0.0736068C18.19 0.302979 8.07766 1.2803 2.53285 5.64834C1.89441 6.15728 1.36495 6.78952 0.976028 7.50741C0.587102 8.22529 0.346667 9.01412 0.269049 9.82689C-0.458958 17.1867 -1.12713 41.3107 19.1573 53.1782C19.9974 53.6679 20.9524 53.9259 21.9247 53.9259C22.8971 53.9259 23.8521 53.6679 24.6922 53.1782C30.1501 50.0206 34.6827 45.4845 37.8362 40.0242C38.159 39.4672 38.2478 38.8049 38.0834 38.1825C37.9189 37.56 33.4852 46.0302 36.9586 36.7033L36.809 36.6235L31.4836 33.9807Z" fill="#C7BA44"/>
</svg>
